<mxfile host="app.diagrams.net" modified="2024-02-13T16:05:14.299Z" agent="Mozilla/5.0 (Windows NT 10.0; Win64; x64; rv:122.0) Gecko/20100101 Firefox/122.0" etag="Nm6bAnxllDx_nIQfYKZC" version="23.1.4" type="device">
  <diagram name="Seite-1" id="cj74t7hviexHJK00Q-R4">
    <mxGraphModel dx="1434" dy="782" grid="1" gridSize="10" guides="1" tooltips="1" connect="1" arrows="1" fold="1" page="1" pageScale="1" pageWidth="827" pageHeight="1169" math="0" shadow="0">
      <root>
        <mxCell id="0" />
        <mxCell id="1" parent="0" />
        <mxCell id="Sxjf55EAPzRtlAvoBQB4-23" value="" style="verticalLabelPosition=bottom;verticalAlign=top;html=1;shape=card;whiteSpace=wrap;size=20;arcSize=12;strokeWidth=2;fillOpacity=0;" vertex="1" parent="1">
          <mxGeometry x="135" y="480" width="490" height="80" as="geometry" />
        </mxCell>
        <mxCell id="Sxjf55EAPzRtlAvoBQB4-1" value="User 1 (Host)" style="shape=umlActor;verticalLabelPosition=bottom;verticalAlign=top;html=1;outlineConnect=0;" vertex="1" parent="1">
          <mxGeometry x="150" y="120" width="30" height="60" as="geometry" />
        </mxCell>
        <mxCell id="Sxjf55EAPzRtlAvoBQB4-2" value=":System" style="rounded=0;whiteSpace=wrap;html=1;" vertex="1" parent="1">
          <mxGeometry x="540" y="130" width="120" height="60" as="geometry" />
        </mxCell>
        <mxCell id="Sxjf55EAPzRtlAvoBQB4-3" value="" style="endArrow=none;dashed=1;html=1;dashPattern=1 3;strokeWidth=2;rounded=0;" edge="1" parent="1">
          <mxGeometry width="50" height="50" relative="1" as="geometry">
            <mxPoint x="165" y="340" as="sourcePoint" />
            <mxPoint x="164.5" y="200" as="targetPoint" />
          </mxGeometry>
        </mxCell>
        <mxCell id="Sxjf55EAPzRtlAvoBQB4-4" value="" style="endArrow=none;dashed=1;html=1;dashPattern=1 3;strokeWidth=2;rounded=0;entryX=0.5;entryY=1;entryDx=0;entryDy=0;" edge="1" parent="1" target="Sxjf55EAPzRtlAvoBQB4-2">
          <mxGeometry width="50" height="50" relative="1" as="geometry">
            <mxPoint x="600" y="340" as="sourcePoint" />
            <mxPoint x="440" y="330" as="targetPoint" />
          </mxGeometry>
        </mxCell>
        <mxCell id="Sxjf55EAPzRtlAvoBQB4-5" value="" style="endArrow=classic;html=1;rounded=0;" edge="1" parent="1">
          <mxGeometry width="50" height="50" relative="1" as="geometry">
            <mxPoint x="160" y="260" as="sourcePoint" />
            <mxPoint x="600" y="260" as="targetPoint" />
          </mxGeometry>
        </mxCell>
        <mxCell id="Sxjf55EAPzRtlAvoBQB4-7" value="&lt;font style=&quot;font-size: 14px;&quot;&gt;createMultiplayer()&lt;/font&gt;" style="edgeLabel;html=1;align=center;verticalAlign=middle;resizable=0;points=[];" vertex="1" connectable="0" parent="Sxjf55EAPzRtlAvoBQB4-5">
          <mxGeometry x="-0.0273" y="3" relative="1" as="geometry">
            <mxPoint y="-17" as="offset" />
          </mxGeometry>
        </mxCell>
        <mxCell id="Sxjf55EAPzRtlAvoBQB4-6" value="" style="endArrow=classic;html=1;rounded=0;" edge="1" parent="1">
          <mxGeometry width="50" height="50" relative="1" as="geometry">
            <mxPoint x="160" y="510" as="sourcePoint" />
            <mxPoint x="600" y="510" as="targetPoint" />
          </mxGeometry>
        </mxCell>
        <mxCell id="Sxjf55EAPzRtlAvoBQB4-16" value="&lt;font style=&quot;font-size: 14px;&quot;&gt;getMultiplayer()&lt;/font&gt;" style="edgeLabel;html=1;align=center;verticalAlign=middle;resizable=0;points=[];" vertex="1" connectable="0" parent="Sxjf55EAPzRtlAvoBQB4-6">
          <mxGeometry x="-0.05" y="-1" relative="1" as="geometry">
            <mxPoint y="-21" as="offset" />
          </mxGeometry>
        </mxCell>
        <mxCell id="Sxjf55EAPzRtlAvoBQB4-8" value="" style="endArrow=classic;html=1;rounded=0;dashed=1;" edge="1" parent="1">
          <mxGeometry width="50" height="50" relative="1" as="geometry">
            <mxPoint x="600" y="320" as="sourcePoint" />
            <mxPoint x="170" y="320" as="targetPoint" />
          </mxGeometry>
        </mxCell>
        <mxCell id="Sxjf55EAPzRtlAvoBQB4-9" value="&lt;font style=&quot;font-size: 14px;&quot;&gt;Spielfeld, Chat,&lt;/font&gt; &lt;font style=&quot;font-size: 14px;&quot;&gt;Statistiken&lt;/font&gt;" style="edgeLabel;html=1;align=center;verticalAlign=middle;resizable=0;points=[];" vertex="1" connectable="0" parent="Sxjf55EAPzRtlAvoBQB4-8">
          <mxGeometry x="0.2791" y="-1" relative="1" as="geometry">
            <mxPoint x="45" y="-19" as="offset" />
          </mxGeometry>
        </mxCell>
        <mxCell id="Sxjf55EAPzRtlAvoBQB4-10" value="User 2 (Gast)" style="shape=umlActor;verticalLabelPosition=bottom;verticalAlign=top;html=1;outlineConnect=0;" vertex="1" parent="1">
          <mxGeometry x="150" y="390" width="30" height="60" as="geometry" />
        </mxCell>
        <mxCell id="Sxjf55EAPzRtlAvoBQB4-11" value="" style="endArrow=none;dashed=1;html=1;dashPattern=1 3;strokeWidth=2;rounded=0;" edge="1" parent="1" target="Sxjf55EAPzRtlAvoBQB4-10">
          <mxGeometry width="50" height="50" relative="1" as="geometry">
            <mxPoint x="165" y="680" as="sourcePoint" />
            <mxPoint x="440" y="340" as="targetPoint" />
          </mxGeometry>
        </mxCell>
        <mxCell id="Sxjf55EAPzRtlAvoBQB4-12" value=":System" style="rounded=0;whiteSpace=wrap;html=1;" vertex="1" parent="1">
          <mxGeometry x="540" y="390" width="120" height="60" as="geometry" />
        </mxCell>
        <mxCell id="Sxjf55EAPzRtlAvoBQB4-13" value="" style="endArrow=none;dashed=1;html=1;dashPattern=1 3;strokeWidth=2;rounded=0;entryX=0.5;entryY=1;entryDx=0;entryDy=0;" edge="1" parent="1" target="Sxjf55EAPzRtlAvoBQB4-12">
          <mxGeometry width="50" height="50" relative="1" as="geometry">
            <mxPoint x="600" y="680" as="sourcePoint" />
            <mxPoint x="440" y="340" as="targetPoint" />
          </mxGeometry>
        </mxCell>
        <mxCell id="Sxjf55EAPzRtlAvoBQB4-14" value="Host Game" style="rounded=0;whiteSpace=wrap;html=1;" vertex="1" parent="1">
          <mxGeometry x="340" y="130" width="80" height="30" as="geometry" />
        </mxCell>
        <mxCell id="Sxjf55EAPzRtlAvoBQB4-15" value="Join Game" style="rounded=0;whiteSpace=wrap;html=1;" vertex="1" parent="1">
          <mxGeometry x="340" y="405" width="80" height="30" as="geometry" />
        </mxCell>
        <mxCell id="Sxjf55EAPzRtlAvoBQB4-17" value="" style="endArrow=classic;html=1;rounded=0;dashed=1;" edge="1" parent="1">
          <mxGeometry width="50" height="50" relative="1" as="geometry">
            <mxPoint x="595" y="550" as="sourcePoint" />
            <mxPoint x="165" y="550" as="targetPoint" />
          </mxGeometry>
        </mxCell>
        <mxCell id="Sxjf55EAPzRtlAvoBQB4-18" value="&lt;font style=&quot;font-size: 14px;&quot;&gt;Game-Liste&lt;/font&gt;" style="edgeLabel;html=1;align=center;verticalAlign=middle;resizable=0;points=[];" vertex="1" connectable="0" parent="Sxjf55EAPzRtlAvoBQB4-17">
          <mxGeometry x="0.2791" y="-1" relative="1" as="geometry">
            <mxPoint x="45" y="-19" as="offset" />
          </mxGeometry>
        </mxCell>
        <mxCell id="Sxjf55EAPzRtlAvoBQB4-19" value="" style="endArrow=classic;html=1;rounded=0;" edge="1" parent="1">
          <mxGeometry width="50" height="50" relative="1" as="geometry">
            <mxPoint x="160" y="610" as="sourcePoint" />
            <mxPoint x="600" y="610" as="targetPoint" />
          </mxGeometry>
        </mxCell>
        <mxCell id="Sxjf55EAPzRtlAvoBQB4-20" value="&lt;font style=&quot;font-size: 14px;&quot;&gt;connect(IP)&lt;/font&gt;" style="edgeLabel;html=1;align=center;verticalAlign=middle;resizable=0;points=[];" vertex="1" connectable="0" parent="Sxjf55EAPzRtlAvoBQB4-19">
          <mxGeometry x="-0.05" y="-1" relative="1" as="geometry">
            <mxPoint x="11" y="-21" as="offset" />
          </mxGeometry>
        </mxCell>
        <mxCell id="Sxjf55EAPzRtlAvoBQB4-26" value="&lt;font style=&quot;font-size: 14px;&quot;&gt;Loop&lt;/font&gt;" style="text;strokeColor=none;align=center;fillColor=none;html=1;verticalAlign=middle;whiteSpace=wrap;rounded=0;" vertex="1" parent="1">
          <mxGeometry x="70" y="480" width="60" height="30" as="geometry" />
        </mxCell>
        <mxCell id="Sxjf55EAPzRtlAvoBQB4-27" value="" style="endArrow=classic;html=1;rounded=0;dashed=1;" edge="1" parent="1">
          <mxGeometry width="50" height="50" relative="1" as="geometry">
            <mxPoint x="595" y="660" as="sourcePoint" />
            <mxPoint x="165" y="660" as="targetPoint" />
          </mxGeometry>
        </mxCell>
        <mxCell id="Sxjf55EAPzRtlAvoBQB4-28" value="&lt;font style=&quot;font-size: 14px;&quot;&gt;Spielfeld, Chat,&lt;/font&gt; &lt;font style=&quot;font-size: 14px;&quot;&gt;Statistiken&lt;/font&gt;" style="edgeLabel;html=1;align=center;verticalAlign=middle;resizable=0;points=[];" vertex="1" connectable="0" parent="Sxjf55EAPzRtlAvoBQB4-27">
          <mxGeometry x="0.2791" y="-1" relative="1" as="geometry">
            <mxPoint x="45" y="-19" as="offset" />
          </mxGeometry>
        </mxCell>
        <mxCell id="Sxjf55EAPzRtlAvoBQB4-29" value="User 2 (Gast)" style="shape=umlActor;verticalLabelPosition=bottom;verticalAlign=top;html=1;outlineConnect=0;" vertex="1" parent="1">
          <mxGeometry x="150" y="790" width="30" height="60" as="geometry" />
        </mxCell>
        <mxCell id="Sxjf55EAPzRtlAvoBQB4-30" value=":System" style="rounded=0;whiteSpace=wrap;html=1;" vertex="1" parent="1">
          <mxGeometry x="540" y="800" width="120" height="60" as="geometry" />
        </mxCell>
        <mxCell id="Sxjf55EAPzRtlAvoBQB4-31" value="" style="endArrow=none;dashed=1;html=1;dashPattern=1 3;strokeWidth=2;rounded=0;" edge="1" parent="1">
          <mxGeometry width="50" height="50" relative="1" as="geometry">
            <mxPoint x="165" y="1020" as="sourcePoint" />
            <mxPoint x="164.5" y="870" as="targetPoint" />
          </mxGeometry>
        </mxCell>
        <mxCell id="Sxjf55EAPzRtlAvoBQB4-32" value="" style="endArrow=none;dashed=1;html=1;dashPattern=1 3;strokeWidth=2;rounded=0;entryX=0.5;entryY=1;entryDx=0;entryDy=0;" edge="1" parent="1" target="Sxjf55EAPzRtlAvoBQB4-30">
          <mxGeometry width="50" height="50" relative="1" as="geometry">
            <mxPoint x="600" y="1020" as="sourcePoint" />
            <mxPoint x="440" y="1000" as="targetPoint" />
          </mxGeometry>
        </mxCell>
        <mxCell id="Sxjf55EAPzRtlAvoBQB4-33" value="" style="endArrow=classic;html=1;rounded=0;" edge="1" parent="1">
          <mxGeometry width="50" height="50" relative="1" as="geometry">
            <mxPoint x="160" y="930" as="sourcePoint" />
            <mxPoint x="600" y="930" as="targetPoint" />
          </mxGeometry>
        </mxCell>
        <mxCell id="Sxjf55EAPzRtlAvoBQB4-34" value="&lt;font style=&quot;font-size: 14px;&quot;&gt;leave()&lt;/font&gt;" style="edgeLabel;html=1;align=center;verticalAlign=middle;resizable=0;points=[];" vertex="1" connectable="0" parent="Sxjf55EAPzRtlAvoBQB4-33">
          <mxGeometry x="-0.0273" y="3" relative="1" as="geometry">
            <mxPoint y="-17" as="offset" />
          </mxGeometry>
        </mxCell>
        <mxCell id="Sxjf55EAPzRtlAvoBQB4-35" value="" style="endArrow=classic;html=1;rounded=0;dashed=1;" edge="1" parent="1">
          <mxGeometry width="50" height="50" relative="1" as="geometry">
            <mxPoint x="600" y="990" as="sourcePoint" />
            <mxPoint x="170" y="990" as="targetPoint" />
          </mxGeometry>
        </mxCell>
        <mxCell id="Sxjf55EAPzRtlAvoBQB4-36" value="&lt;font style=&quot;font-size: 14px;&quot;&gt;Hauptmenü&lt;/font&gt;" style="edgeLabel;html=1;align=center;verticalAlign=middle;resizable=0;points=[];" vertex="1" connectable="0" parent="Sxjf55EAPzRtlAvoBQB4-35">
          <mxGeometry x="0.2791" y="-1" relative="1" as="geometry">
            <mxPoint x="45" y="-19" as="offset" />
          </mxGeometry>
        </mxCell>
        <mxCell id="Sxjf55EAPzRtlAvoBQB4-37" value="Leave Game" style="rounded=0;whiteSpace=wrap;html=1;" vertex="1" parent="1">
          <mxGeometry x="340" y="800" width="80" height="30" as="geometry" />
        </mxCell>
      </root>
    </mxGraphModel>
  </diagram>
</mxfile>
